<svg width="164" height="36" viewBox="0 0 164 36" fill="none" xmlns="http://www.w3.org/2000/svg">
<path d="M65.4839 20.4475L62.6435 12.7894C62.5273 12.4762 62.0845 12.4762 61.9684 12.7894L59.1277 20.4475C59.0406 20.6827 59.2146 20.9328 59.4654 20.9328H65.1464C65.3972 20.9328 65.571 20.6827 65.4839 20.4475ZM66.7962 24.7517H57.8156C57.6649 24.7517 57.5303 24.8453 57.478 24.9864L55.7099 29.7514C55.6576 29.8925 55.5229 29.9861 55.3724 29.9861H51.4804C51.2255 29.9861 51.0512 29.7286 51.1463 29.4922L60.1081 7.1669C60.1628 7.03058 60.2951 6.94106 60.4422 6.94106H64.1694C64.3163 6.94106 64.4488 7.03058 64.5035 7.1669L73.4653 29.4919C73.5604 29.7286 73.3861 29.9861 73.1312 29.9861H69.2392C69.0887 29.9861 68.954 29.8925 68.9017 29.7514L67.1336 24.9864C67.0813 24.8453 66.9467 24.7517 66.7962 24.7517ZM75.289 14.7764H78.6183C78.8173 14.7764 78.9783 14.9377 78.9783 15.1364V29.6262C78.9783 29.8249 78.8173 29.9862 78.6183 29.9862H75.289C75.0903 29.9862 74.929 29.8249 74.929 29.6262V15.1364C74.929 14.9377 75.0903 14.7764 75.289 14.7764ZM91.1204 18.3012C91.1204 18.4999 90.9591 18.6612 90.7604 18.6612H90.6596C89.0134 18.6612 87.806 19.0562 87.038 19.8463C86.2695 20.6364 85.8857 21.9424 85.8857 23.764V29.6263C85.8857 29.825 85.7247 29.9863 85.5257 29.9863H82.2293C82.0306 29.9863 81.8693 29.825 81.8693 29.6263V15.1363C81.8693 14.9376 82.0306 14.7763 82.2293 14.7763H85.4929C85.6918 14.7763 85.8529 14.9376 85.8529 15.1363V18.0026H85.9189C86.3139 16.8175 86.9393 15.9072 87.7954 15.2702C88.6513 14.634 89.7049 14.3155 90.9557 14.3155H91.1204V18.3012ZM100.223 18.1673C100.025 18.1673 99.8634 18.3286 99.8634 18.5273V24.5542C99.8634 25.1689 99.9836 25.6076 100.226 25.8711C100.467 26.1344 100.884 26.2661 101.476 26.2661H101.808C102.007 26.2661 102.168 26.4272 102.168 26.6261V29.659C102.168 29.858 102.007 30.019 101.808 30.019H100.39C98.9195 30.019 97.7893 29.6405 96.9992 28.8833C96.2089 28.1261 95.8139 27.0017 95.8139 25.5089V18.5273C95.8139 18.3286 95.6528 18.1673 95.4539 18.1673H93.3757C93.1767 18.1673 93.0157 18.0061 93.0157 17.8073V15.1364C93.0157 14.9377 93.1767 14.7764 93.3757 14.7764H95.4539C95.6528 14.7764 95.8139 14.6153 95.8139 14.4164V9.04591C95.8139 8.84719 95.9751 8.68591 96.1739 8.68591H99.5034C99.7021 8.68591 99.8634 8.84719 99.8634 9.04591V14.4164C99.8634 14.6153 100.025 14.7764 100.223 14.7764H102.631C102.83 14.7764 102.991 14.9377 102.991 15.1364V17.8073C102.991 18.0061 102.83 18.1673 102.631 18.1673H100.223ZM115.469 25.476C116.226 24.6859 116.604 23.6544 116.604 22.3812C116.604 21.1087 116.226 20.0767 115.469 19.2866C114.711 18.4965 113.718 18.1015 112.489 18.1015C111.26 18.1015 110.267 18.4965 109.51 19.2866C108.753 20.0767 108.374 21.1087 108.374 22.3812C108.374 23.6544 108.753 24.6859 109.51 25.476C110.267 26.2661 111.26 26.6611 112.489 26.6611C113.718 26.6611 114.711 26.2661 115.469 25.476ZM107.781 29.5252C106.662 28.889 105.778 27.9614 105.131 26.7434C104.484 25.5254 104.16 24.0715 104.16 22.3812C104.16 20.6916 104.484 19.2372 105.131 18.0192C105.778 16.8012 106.662 15.8743 107.781 15.2373C108.901 14.6008 110.13 14.2826 111.469 14.2826C112.654 14.2826 113.669 14.513 114.514 14.974C115.358 15.4348 116.033 16.0824 116.539 16.9164H116.604V15.1363C116.604 14.9376 116.766 14.7763 116.964 14.7763H120.261C120.46 14.7763 120.621 14.9376 120.621 15.1363V29.626C120.621 29.825 120.46 29.986 120.261 29.986H116.964C116.766 29.986 116.604 29.825 116.604 29.626V27.8462H116.539C116.033 28.6807 115.358 29.3277 114.514 29.7885C113.669 30.2496 112.654 30.48 111.469 30.48C110.13 30.48 108.901 30.1615 107.781 29.5252ZM134.33 25.476C135.087 24.6859 135.466 23.6544 135.466 22.3812C135.466 21.1087 135.087 20.0767 134.33 19.2866C133.573 18.4965 132.58 18.1015 131.351 18.1015C130.122 18.1015 129.129 18.4965 128.371 19.2866C127.614 20.0767 127.236 21.1087 127.236 22.3812C127.236 23.6544 127.614 24.6859 128.371 25.476C129.129 26.2661 130.122 26.6611 131.351 26.6611C132.58 26.6611 133.573 26.2661 134.33 25.476ZM129.326 29.7885C128.481 29.3277 127.806 28.6807 127.302 27.8462H127.236V29.626C127.236 29.825 127.074 29.986 126.876 29.986H123.546C123.348 29.986 123.186 29.825 123.186 29.626V7.30101C123.186 7.10229 123.348 6.94101 123.546 6.94101H126.876C127.074 6.94101 127.236 7.10229 127.236 7.30101V16.9164H127.302C127.806 16.0824 128.481 15.4348 129.326 14.974C130.171 14.513 131.186 14.2826 132.372 14.2826C133.71 14.2826 134.939 14.6008 136.059 15.2373C137.178 15.8743 138.061 16.8012 138.709 18.0192C139.356 19.2372 139.68 20.6916 139.68 22.3812C139.68 24.0715 139.356 25.5254 138.709 26.7434C138.061 27.9614 137.178 28.889 136.059 29.5252C134.939 30.1615 133.71 30.48 132.372 30.48C131.186 30.48 130.171 30.2496 129.326 29.7885ZM145.289 29.9862H141.96C141.761 29.9862 141.6 29.8249 141.6 29.6262V7.30113C141.6 7.10241 141.761 6.94113 141.96 6.94113H145.289C145.488 6.94113 145.649 7.10241 145.649 7.30113V29.6262C145.649 29.8249 145.488 29.9862 145.289 29.9862ZM153.142 18.2991C152.59 18.7296 152.218 19.3512 152.025 20.1643C151.972 20.3885 152.147 20.6035 152.377 20.6035H158.713C158.933 20.6035 159.106 20.4067 159.07 20.1898C158.944 19.4206 158.614 18.8071 158.081 18.3485C157.455 17.8109 156.637 17.5419 155.628 17.5419C154.618 17.5419 153.79 17.7943 153.142 18.2991ZM161.258 16.4059C162.552 17.8217 163.2 19.8247 163.2 22.4141V22.8442C163.2 23.0431 163.039 23.2042 162.84 23.2042H152.255C152.031 23.2042 151.86 23.4077 151.899 23.628C152.068 24.5899 152.493 25.3541 153.175 25.9203C153.954 26.568 154.937 26.8915 156.122 26.8915C157.652 26.8915 159.068 26.2944 160.37 25.0999C160.529 24.954 160.782 24.985 160.905 25.1621L162.524 27.4853C162.628 27.6348 162.606 27.8412 162.468 27.9612C161.674 28.6563 160.799 29.2383 159.842 29.7063C158.788 30.2218 157.548 30.48 156.122 30.48C154.476 30.48 153.038 30.145 151.809 29.4759C150.58 28.8067 149.625 27.8628 148.945 26.6446C148.264 25.4266 147.924 24.0166 147.924 22.4141C147.924 20.8123 148.254 19.3968 148.912 18.1673C149.57 16.9385 150.492 15.9838 151.678 15.3031C152.863 14.6232 154.245 14.2827 155.826 14.2827C158.152 14.2827 159.962 14.9904 161.258 16.4059ZM79.4128 9.41935C79.4128 10.7775 78.3119 11.8784 76.9537 11.8784C75.5956 11.8784 74.4945 10.7775 74.4945 9.41935C74.4945 8.06119 75.5956 6.96031 76.9537 6.96031C78.3119 6.96031 79.4128 8.06119 79.4128 9.41935Z" fill="#333333"/>
<path d="M18.9598 0.4482L3.12964 6.99852C2.24932 7.36284 2.25844 8.61324 3.14428 8.96436L19.0407 15.2682C20.4375 15.8221 21.9929 15.8221 23.3895 15.2682L39.2861 8.96436C40.1717 8.61324 40.1811 7.36284 39.3005 6.99852L23.4706 0.4482C22.0263 -0.1494 20.4039 -0.1494 18.9598 0.4482Z" fill="#FCB400"/>
<path d="M22.6254 18.7106V34.4584C22.6254 35.2075 23.3807 35.7204 24.0769 35.4444L41.7904 28.5688C42.1948 28.4085 42.46 28.0178 42.46 27.5829V11.8351C42.46 11.086 41.7047 10.5732 41.0085 10.8492L23.295 17.7247C22.8909 17.885 22.6254 18.2757 22.6254 18.7106Z" fill="#18BFFF"/>
<path d="M18.4892 19.5231L13.2323 22.0614L12.6985 22.3194L1.60137 27.6366C0.897932 27.9759 9.15527e-05 27.4633 9.15527e-05 26.6819V11.9012C9.15527e-05 11.6185 0.145052 11.3744 0.339452 11.1906C0.420572 11.1092 0.512492 11.0423 0.608012 10.9892C0.873212 10.8301 1.25145 10.7876 1.57305 10.9148L18.4009 17.5823C19.2563 17.9216 19.3235 19.1202 18.4892 19.5231Z" fill="#F82B60"/>
<path d="M18.4892 19.5231L13.2323 22.0614L0.339462 11.1906C0.420582 11.1092 0.512502 11.0423 0.608022 10.9892C0.873222 10.8301 1.25146 10.7876 1.57306 10.9148L18.4009 17.5823C19.2563 17.9216 19.3235 19.1202 18.4892 19.5231Z" fill="black" fill-opacity="0.25"/>
</svg>
