<svg width="157" height="40" viewBox="0 0 157 40" fill="none" xmlns="http://www.w3.org/2000/svg">
<path d="M50.6953 15.6419C50.6953 12.789 47.9566 9.75898 43.2172 9.75898C37.8952 9.75898 32.0487 13.7137 31.1553 21.6035C30.2424 29.5721 35.1371 33.1136 40.0706 33.1136C45.0042 33.1136 47.5875 31.1658 50.2291 28.5686C47.9566 25.6763 45.0236 27.0143 44.4603 27.3094C43.8388 27.6242 43.0424 28.0571 41.4109 28.0571C39.5074 28.0571 37.565 27.1913 37.565 23.5908C49.763 22.3709 50.6953 18.4948 50.6953 15.6419ZM44.6546 16.1141C44.5769 16.9995 44.2273 18.5145 38.0506 19.3606C39.352 14.6778 41.8382 14.3237 42.9842 14.3237C44.0525 14.3237 44.7323 15.1697 44.6546 16.1141ZM23.988 16.8815C23.988 16.8815 21.3658 25.2238 21.1522 25.9124C21.0745 25.2041 19.1516 10.2312 19.1516 10.2312C14.6842 10.2312 12.2951 13.4579 11.0325 16.8618C11.0325 16.8618 7.84709 25.2238 7.57516 25.9321C7.55573 25.2828 7.08957 16.9602 7.08957 16.9602C6.81764 12.789 3.04949 10.2509 0 10.2509L3.69046 32.9365C8.37152 32.9169 10.8966 29.7098 12.2174 26.306C12.2174 26.306 15.0338 18.9277 15.1503 18.5932C15.1697 18.908 17.1704 32.9365 17.1704 32.9365C21.8708 32.9365 24.3959 29.9262 25.7555 26.6404L32.3401 10.2509C27.6979 10.2509 25.2505 13.4579 23.988 16.8815ZM67.9433 9.71963C65.0492 9.71963 62.835 11.3133 60.9703 13.6547V13.635L62.6407 0C58.7949 0 55.6677 3.38416 55.0656 8.42105L52.152 32.7595C54.3663 32.7595 56.7166 32.1102 57.9791 30.4575C59.1057 31.9331 60.7955 33.1136 63.3011 33.1136C69.7886 33.1136 74.2365 25.4796 74.2365 18.3178C74.1977 11.7855 71.0705 9.71963 67.9433 9.71963ZM67.3412 21.4265C66.6614 25.4206 64.4665 28.1358 62.3494 28.1358C60.2128 28.1358 59.2999 27.1717 59.2999 27.1717C59.7078 23.6695 59.9603 21.5248 60.7372 19.6754C61.5142 17.8259 63.3594 14.8746 65.2823 14.8746C67.1664 14.8746 68.021 17.4127 67.3412 21.4265ZM90.4357 10.2509H85.9101L85.9295 10.0148C86.2403 7.0241 86.9395 5.45007 89.2509 5.19429C90.8242 5.03689 91.5234 4.21053 91.6983 3.30546C91.8342 2.59715 92.2615 0.137727 92.2615 0.137727C83.1713 0.0787014 80.3161 4.05312 79.578 10.1131L79.5586 10.2509H79.4615C77.9853 10.2509 76.3537 11.9429 76.0818 14.0876L75.9847 14.8746H79.0147L76.4703 36.1633L75.6933 39.9803C75.7904 39.9803 75.907 40 76.0041 40C80.2578 39.8426 82.9771 36.4388 83.5792 31.5002L85.5604 14.8746H86.9783C88.3768 14.8746 90.0084 13.4579 90.2998 11.0969L90.4357 10.2509ZM113.977 9.85735C108.752 9.85735 103.819 13.7531 102.303 19.8721C100.788 25.9911 103.08 33.2317 110.772 33.2317C118.444 33.2317 122.873 25.696 122.873 19.4196C122.873 13.1825 118.697 9.85735 113.977 9.85735ZM116.094 21.2297C115.822 24.0039 114.618 28.2145 111.316 28.2145C107.995 28.2145 108.461 23.2956 108.791 20.9543C109.141 18.4555 110.52 14.8942 113.491 14.8942C116.152 14.8942 116.405 18.1013 116.094 21.2297ZM148.687 16.8815C148.687 16.8815 146.065 25.2238 145.851 25.9124C145.773 25.2041 143.85 10.2312 143.85 10.2312C139.383 10.2312 136.994 13.4579 135.731 16.8618C135.731 16.8618 132.546 25.2238 132.274 25.9321C132.254 25.2828 131.788 16.9602 131.788 16.9602C131.516 12.789 127.748 10.2509 124.699 10.2509L128.37 32.9365C133.051 32.9169 135.576 29.7098 136.897 26.306C136.897 26.306 139.713 18.9277 139.81 18.5932C139.849 18.908 141.83 32.9365 141.83 32.9365C146.531 32.9365 149.056 29.9262 150.415 26.6404L157 10.2509C152.377 10.2509 149.93 13.4579 148.687 16.8815ZM94.7089 0.137727L90.9019 31.2445L90.125 35.0812C90.2221 35.0812 90.3386 35.1008 90.4357 35.1008C94.5341 35.0418 97.4476 31.4019 97.9915 26.8175L100.186 8.97196C100.847 3.52189 97.6418 0.137727 94.7089 0.137727Z" fill="black"/>
</svg>
